<mxfile host="Electron" modified="2025-10-28T05:32:56.544Z" agent="Mozilla/5.0 (Windows NT 10.0; Win64; x64) AppleWebKit/537.36 (KHTML, like Gecko) draw.io/23.1.5 Chrome/120.0.6099.109 Electron/28.1.0 Safari/537.36" etag="IuWK3S4Q0zzoksjr3w8T" version="23.1.5" type="device">
  <diagram name="Страница — 1" id="qcXgBmRwwh0VwCHtwG6o">
    <mxGraphModel dx="1389" dy="582" grid="1" gridSize="10" guides="1" tooltips="1" connect="1" arrows="1" fold="1" page="0" pageScale="1" pageWidth="827" pageHeight="1169" math="0" shadow="0">
      <root>
        <mxCell id="0" />
        <mxCell id="1" parent="0" />
        <mxCell id="9S3Gav2TU0RLJ3BiW36s-1" value="" style="ellipse;whiteSpace=wrap;html=1;" vertex="1" parent="1">
          <mxGeometry x="270" y="260" width="120" height="80" as="geometry" />
        </mxCell>
        <mxCell id="9S3Gav2TU0RLJ3BiW36s-3" value="Комендант" style="shape=umlActor;verticalLabelPosition=bottom;verticalAlign=top;html=1;outlineConnect=0;" vertex="1" parent="1">
          <mxGeometry x="-10" y="380" width="30" height="60" as="geometry" />
        </mxCell>
        <mxCell id="9S3Gav2TU0RLJ3BiW36s-4" value="Администратор" style="shape=umlActor;verticalLabelPosition=bottom;verticalAlign=top;html=1;outlineConnect=0;" vertex="1" parent="1">
          <mxGeometry x="-10" y="510" width="30" height="60" as="geometry" />
        </mxCell>
        <mxCell id="9S3Gav2TU0RLJ3BiW36s-5" value="Воспитатель" style="shape=umlActor;verticalLabelPosition=bottom;verticalAlign=top;html=1;outlineConnect=0;" vertex="1" parent="1">
          <mxGeometry x="-10" y="250" width="30" height="60" as="geometry" />
        </mxCell>
      </root>
    </mxGraphModel>
  </diagram>
</mxfile>
